<?xml version="1.0" encoding="utf-8"?>
<!-- Generator: Adobe Illustrator 26.0.3, SVG Export Plug-In . SVG Version: 6.00 Build 0)  -->
<svg version="1.1" id="Layer_1" xmlns="http://www.w3.org/2000/svg" xmlns:xlink="http://www.w3.org/1999/xlink" x="0px" y="0px"
	 viewBox="0 0 500 500" style="enable-background:new 0 0 500 500;" xml:space="preserve">
<style type="text/css">
	.st0{fill-rule:evenodd;clip-rule:evenodd;fill:#0082CA;}
	.st1{fill-rule:evenodd;clip-rule:evenodd;fill:#F8B200;}
	.st2{fill:#F8B200;}
	.st3{fill:#0082CA;}
	.st4{display:none;}
	.st5{display:inline;fill:none;}
	.st6{display:inline;fill:none;stroke:#000000;stroke-width:0.3323;stroke-miterlimit:10;}
</style>
<g id="Layer_1_00000047046067955325966660000013334938771117148330_">
	<path class="st0" d="M128.51,183.74L128.51,183.74c15.28-8.82,35.01-3.54,43.84,11.75l57.87,100.23
		c8.82,15.28,3.54,35.01-11.75,43.84l0,0c-15.28,8.82-35.01,3.54-43.84-11.75l-57.86-100.23
		C107.94,212.29,113.23,192.56,128.51,183.74L128.51,183.74z"/>
	<path class="st1" d="M217.55,183.74L217.55,183.74c15.28-8.82,35.01-3.54,43.84,11.75l43.97,76.15l24.29-42.07
		c-3.51-5.14-5.57-11.34-5.57-18l0,0c0-17.65,14.44-32.09,32.09-32.09l0,0c17.65,0,32.09,14.44,32.09,32.09l0,0
		c0,17.65-14.44,32.09-32.09,32.09l0,0c-0.61,0-1.22-0.02-1.82-0.05l-32.84,56.88c5.4,14.4-0.26,31.14-14,39.06l0,0
		c-15.28,8.82-35.01,3.54-43.84-11.75l-57.86-100.22C196.98,212.29,202.27,192.56,217.55,183.74L217.55,183.74z"/>
	<path class="st2" d="M190.44,88.24h-48.05c-13.45,0-24.2,4.39-32.24,13.16s-12.06,20.33-12.06,34.65v55.28
		c0,17.84-2.34,31.29-7.02,40.36c-4.68,9.06-13.01,15.64-25,19.74c11.99,4.09,20.33,10.67,25,19.75c4.69,9.06,7.02,22.37,7.02,39.91
		v55.28c0,14.33,4.02,25.88,12.06,34.65c8.04,8.78,18.79,13.16,32.24,13.16h109.49c-2.59,4.22-4.08,9.17-4.08,14.48
		s1.5,10.26,4.08,14.48H142.4h-3.47v-0.06c-20.63-0.7-37.38-7.69-50.27-20.99c-13.6-14.04-20.4-32.61-20.4-55.71v-54.4
		c0-17.84-3.29-30.19-9.87-37.07c-6.58-6.87-18.06-10.31-34.43-10.31v-26.76c16.07,0,27.49-3.43,34.21-10.31
		c6.73-6.87,10.09-19.08,10.09-36.62v-54.84c0-23.1,6.8-41.67,20.4-55.7c12.88-13.3,29.64-20.3,50.27-21v-0.06h3.47h48.05
		c4.87-7.93,13.62-13.22,23.62-13.22c15.3,0,27.7,12.4,27.7,27.7s-12.4,27.71-27.7,27.71C204.07,101.47,195.31,96.17,190.44,88.24"
		/>
	<path class="st3" d="M401.87,366.35v-55.28c0-17.54,2.33-30.85,7.01-39.91c4.68-9.07,13.02-15.65,25.01-19.75
		c-11.99-4.09-20.33-10.68-25.01-19.74c-4.68-9.07-7.01-22.52-7.01-40.36v-55.28c0-14.33-4.03-25.88-12.07-34.65
		s-18.79-13.16-32.24-13.16H248.07c2.58-4.21,4.08-9.17,4.08-14.48c0-5.3-1.5-10.26-4.08-14.48h109.49h5.5v0.15
		c19.7,1.07,35.78,8.04,48.24,20.91c13.6,14.04,20.39,32.61,20.39,55.7v54.84c0,17.54,3.37,29.76,10.09,36.62
		c6.73,6.87,18.13,10.31,34.22,10.31v26.76c-16.38,0-27.86,3.44-34.44,10.31c-6.58,6.88-9.87,19.22-9.87,37.07v54.4
		c0,23.1-6.8,41.67-20.39,55.71c-12.46,12.86-28.55,19.83-48.24,20.91v0.15h-5.5h-48.04c-4.87,7.93-13.63,13.22-23.62,13.22
		c-15.3,0-27.7-12.4-27.7-27.7c0-15.3,12.4-27.7,27.7-27.7c9.99,0,18.75,5.29,23.62,13.22h48.04c13.46,0,24.2-4.38,32.24-13.16
		C397.84,392.23,401.87,380.68,401.87,366.35"/>
</g>
<g id="Instructions" class="st4">
	<rect x="-401" y="-3.5" class="st5" width="360" height="657.96"/>
	<text transform="matrix(1 0 0 1 -401 15.564)" style="display:inline; font-family:'ProximaNova-Regular'; font-size:28.5782px;">MY</text>
	<text transform="matrix(1 0 0 1 -359.99 15.564)" style="display:inline; font-family:'ProximaNova-Bold'; font-size:28.5782px;">ARGONNE  </text>
	<text transform="matrix(1 0 0 1 -401 49.854)" style="display:inline; font-family:'ProximaNova-Bold'; font-size:28.5782px;">INTRANET APP ICONS</text>
	<text transform="matrix(1 0 0 1 -401 114.454)" style="display:inline; font-family:'ProximaNova-Bold'; font-size:25.2551px;">HOW TO</text>
	<text transform="matrix(1 0 0 1 -401 144.764)" style="display:inline; font-family:'ProximaNova-Medium'; font-size:25.2551px;">Design artwork from this file:</text>
	<text transform="matrix(1 0 0 1 -401 172.674)" style="display:inline; font-family:'ProximaNova-Regular'; font-size:23.2613px;">• 500 x 500px</text>
	<text transform="matrix(1 0 0 1 -401 200.594)" style="display:inline; font-family:'ProximaNova-Regular'; font-size:23.2613px;">• 120dpi</text>
	<text transform="matrix(1 0 0 1 -401 228.504)" style="display:inline; font-family:'ProximaNova-Regular'; font-size:23.2613px;">• PNG format</text>
	<text transform="matrix(1 0 0 1 -401 256.414)" style="display:inline; font-family:'ProximaNova-Regular'; font-size:23.2613px;">• Double check size to existing </text>
	<text transform="matrix(1 0 0 1 -401 284.334)" style="display:inline; font-family:'ProximaNova-Regular'; font-size:23.2613px;">final app icons</text>
	<text transform="matrix(1 0 0 1 -401 344.944)" style="display:inline; font-family:'ProximaNova-Medium'; font-size:25.2551px;">Use Argonne colors.</text>
	<text transform="matrix(1 0 0 1 -401 405.554)" style="display:inline; font-family:'ProximaNova-Medium'; font-size:25.2551px;">Once approved, transfer live art </text>
	<text transform="matrix(1 0 0 1 -401 435.864)" style="display:inline; font-family:'ProximaNova-Medium'; font-size:25.2551px;">to the composite file on the </text>
	<text transform="matrix(1 0 0 1 -401 466.164)" style="display:inline; font-family:'ProximaNova-Medium'; font-size:25.2551px;">TOOLBOX, and export </text>
	<text transform="matrix(1 0 0 1 -401 496.474)" style="display:inline; font-family:'ProximaNova-Medium'; font-size:25.2551px;">according to those instructions.</text>
	<line class="st6" x1="-401" y1="70.94" x2="-93.61" y2="70.94"/>
</g>
</svg>
