<?xml version="1.0" encoding="utf-8"?>
<!-- Generator: Adobe Illustrator 26.0.2, SVG Export Plug-In . SVG Version: 6.00 Build 0)  -->
<svg version="1.1" id="Layer_1" xmlns="http://www.w3.org/2000/svg" xmlns:xlink="http://www.w3.org/1999/xlink" x="0px" y="0px"
	 viewBox="0 0 1144.24 1043.42" style="enable-background:new 0 0 1144.24 1043.42;" xml:space="preserve">
<style type="text/css">
	.st0{fill-rule:evenodd;clip-rule:evenodd;fill:#58A4DA;}
	.st1{clip-path:url(#SVGID_00000178163647843215215740000015692432278364216479_);fill:#A7A9AC;}
	.st2{clip-path:url(#SVGID_00000128482629505068337290000002311448071016107437_);fill:#A7A9AC;}
	.st3{fill:#1172BA;}
	.st4{fill:#F79421;}
	.st5{fill:#EC2227;}
	.st6{fill:#2D9545;}
	.st7{fill:#808285;}
	.st8{fill-rule:evenodd;clip-rule:evenodd;fill:#742F92;}
	.st9{fill-rule:evenodd;clip-rule:evenodd;fill:#5A2F92;}
	.st10{fill:url(#SVGID_00000060715735022427583770000002437067786295674016_);}
	.st11{fill:#F15B22;}
	.st12{fill:#2B3445;}
	.st13{fill:url(#SVGID_00000127736058763111430300000016716322478551193773_);}
	.st14{fill:#414042;}
	.st15{fill:#065589;}
	.st16{fill:#44444C;}
	.st17{fill:url(#SVGID_00000054946223084325282330000013411929558275932337_);}
	.st18{fill:url(#SVGID_00000121276847620941372970000006160478234194316177_);}
	.st19{fill:url(#SVGID_00000158009482261689385720000012123046735430648743_);}
	.st20{fill:#010101;}
	.st21{fill-rule:evenodd;clip-rule:evenodd;fill:#DA4326;}
	.st22{fill-rule:evenodd;clip-rule:evenodd;fill:#1C7476;}
	.st23{fill-rule:evenodd;clip-rule:evenodd;fill:url(#SVGID_00000088850315320462499780000001649039410541667769_);}
	.st24{fill-rule:evenodd;clip-rule:evenodd;fill:url(#SVGID_00000127738784136258150270000008534970994820956834_);}
	.st25{fill-rule:evenodd;clip-rule:evenodd;fill:url(#SVGID_00000151526075324712410360000000277257315876345505_);}
	.st26{fill-rule:evenodd;clip-rule:evenodd;fill:url(#SVGID_00000047747035136196726420000016688891855933683131_);}
	.st27{fill-rule:evenodd;clip-rule:evenodd;fill:url(#SVGID_00000042738480937283347630000006178936334123277247_);}
	.st28{fill-rule:evenodd;clip-rule:evenodd;fill:#252732;}
	.st29{fill-rule:evenodd;clip-rule:evenodd;fill:#C2C2C2;}
	.st30{fill-rule:evenodd;clip-rule:evenodd;fill:#FFFFFF;}
	.st31{fill-rule:evenodd;clip-rule:evenodd;fill:#0F4C8B;}
	.st32{fill:#333333;}
	.st33{fill:#F26722;}
	.st34{fill-rule:evenodd;clip-rule:evenodd;fill:#30B993;}
	.st35{fill:#422164;}
	.st36{fill-rule:evenodd;clip-rule:evenodd;fill:#422164;}
	.st37{fill:#30B993;}
	.st38{fill:#FFFFFF;}
	.st39{fill:#F26522;}
	.st40{fill:#414142;}
	.st41{fill:url(#SVGID_00000065067472906504512400000016138995349471807138_);}
	.st42{fill-rule:evenodd;clip-rule:evenodd;fill:#F8961D;stroke:#FFFFFF;stroke-width:0.216;stroke-miterlimit:22.9256;}
	.st43{fill-rule:evenodd;clip-rule:evenodd;fill:#A7A9AC;}
	.st44{fill-rule:evenodd;clip-rule:evenodd;}
	.st45{fill-rule:evenodd;clip-rule:evenodd;fill:#939598;}
	.st46{fill-rule:evenodd;clip-rule:evenodd;fill:#B32C2C;}
	.st47{fill-rule:evenodd;clip-rule:evenodd;fill:#7C1F1E;}
	.st48{fill-rule:evenodd;clip-rule:evenodd;fill:#039C8B;}
	.st49{fill:#A7A9AC;}
	.st50{fill-rule:evenodd;clip-rule:evenodd;fill:#303030;}
	.st51{fill:#20BAED;}
	.st52{fill:#174173;}
	.st53{clip-path:url(#SVGID_00000040563211685864165820000001376559167343205543_);fill:#231F20;}
	.st54{fill-rule:evenodd;clip-rule:evenodd;fill:#010101;}
	.st55{fill-rule:evenodd;clip-rule:evenodd;fill:#6E6F72;}
	.st56{fill:#6D6E71;}
	.st57{fill:#27AAE1;}
	.st58{fill:#63B7E6;}
	.st59{fill:#C1DDF4;}
	.st60{fill:#8DC63F;}
	.st61{fill-rule:evenodd;clip-rule:evenodd;fill:#6D6E71;}
	.st62{fill-rule:evenodd;clip-rule:evenodd;fill:#0082CA;}
	.st63{fill-rule:evenodd;clip-rule:evenodd;fill:#F8B200;}
	.st64{fill:#F8B200;}
	.st65{fill:#0082CA;}
	.st66{fill-rule:evenodd;clip-rule:evenodd;fill:#00609C;}
	.st67{fill-rule:evenodd;clip-rule:evenodd;fill:#77B300;}
	.st68{fill:#77B300;}
	.st69{fill:#00609C;}
	.st70{fill-rule:evenodd;clip-rule:evenodd;fill:#A12B2F;}
	.st71{fill-rule:evenodd;clip-rule:evenodd;fill:#FF7900;}
	.st72{fill:#FF7900;}
	.st73{fill:#A12B2F;}
	.st74{fill:#999999;}
</style>
<path class="st62" d="M320.14,382.7L320.14,382.7c31.58-18.23,72.33-7.31,90.57,24.27l119.56,207.08
	c18.23,31.58,7.31,72.33-24.27,90.57h0c-31.58,18.23-72.33,7.31-90.57-24.27L295.88,473.27
	C277.65,441.69,288.57,400.93,320.14,382.7L320.14,382.7z"/>
<path class="st63" d="M504.11,382.7L504.11,382.7c31.58-18.23,72.33-7.31,90.57,24.27l90.84,157.34l50.18-86.92
	c-7.25-10.62-11.5-23.44-11.5-37.2l0,0c0-36.46,29.83-66.3,66.3-66.3l0,0c36.46,0,66.3,29.83,66.3,66.3l0,0
	c0,36.46-29.83,66.3-66.3,66.3l0,0c-1.26,0-2.52-0.04-3.77-0.11L718.88,623.9c11.15,29.76-0.54,64.33-28.92,80.71h0
	c-31.58,18.23-72.33,7.31-90.57-24.27L479.85,473.27C461.61,441.69,472.53,400.93,504.11,382.7L504.11,382.7z"/>
<path class="st64" d="M448.09,185.39h-99.27c-27.79,0-49.99,9.07-66.61,27.19c-16.62,18.12-24.92,42-24.92,71.59v114.21
	c0,36.85-4.83,64.65-14.51,83.38c-9.66,18.72-26.89,32.32-51.66,40.78c24.77,8.46,42,22.05,51.66,40.8
	c9.68,18.72,14.51,46.21,14.51,82.46v114.21c0,29.6,8.3,53.47,24.92,71.59c16.62,18.14,38.82,27.19,66.61,27.19h226.23
	c-5.35,8.72-8.44,18.95-8.44,29.92c0,10.97,3.09,21.2,8.44,29.91H348.83h-7.17v-0.13c-42.62-1.45-77.24-15.89-103.86-43.37
	c-28.09-29.01-42.14-67.38-42.14-115.11V647.62c0-36.86-6.8-62.38-20.4-76.59c-13.59-14.19-37.31-21.3-71.14-21.3v-55.29
	c33.21,0,56.79-7.09,70.68-21.3c13.9-14.19,20.85-39.42,20.85-75.67v-113.3c0-47.72,14.05-86.09,42.14-115.09
	c26.62-27.48,61.24-41.94,103.86-43.39v-0.13h7.17h99.27c10.07-16.39,28.15-27.32,48.81-27.32c31.61,0,57.23,25.62,57.23,57.23
	s-25.62,57.25-57.23,57.25C476.25,212.72,458.16,201.78,448.09,185.39"/>
<path class="st65" d="M884.94,760.01V645.8c0-36.25,4.82-63.74,14.49-82.46c9.67-18.74,26.9-32.33,51.67-40.8
	c-24.77-8.46-42-22.06-51.67-40.78c-9.67-18.73-14.49-46.53-14.49-83.38V284.17c0-29.6-8.32-53.47-24.93-71.59
	c-16.62-18.12-38.82-27.19-66.62-27.19H567.16c5.34-8.7,8.44-18.94,8.44-29.91c0-10.96-3.1-21.2-8.43-29.91h226.21h11.36v0.31
	c40.7,2.22,73.93,16.62,99.68,43.2c28.09,29,42.13,67.37,42.13,115.09v113.3c0,36.25,6.96,61.48,20.84,75.67
	c13.9,14.2,37.46,21.3,70.71,21.3v55.29c-33.84,0-57.56,7.11-71.16,21.3c-13.59,14.21-20.4,39.72-20.4,76.59v112.39
	c0,47.73-14.04,86.1-42.13,115.11c-25.75,26.57-58.98,40.97-99.68,43.2v0.3h-11.36h-99.25c-10.07,16.39-28.16,27.32-48.81,27.32
	c-31.62,0-57.24-25.62-57.24-57.23c0-31.61,25.62-57.24,57.24-57.24c20.65,0,38.75,10.94,48.81,27.32h99.25
	c27.8,0,50-9.05,66.62-27.19C876.62,813.48,884.94,789.6,884.94,760.01"/>
</svg>
